HIERARCHY
ROOT Hips
{
  OFFSET 135.242 102.086 44.7876
  CHANNELS 6 Xposition Yposition Zposition Zrotation Xrotation Yrotation
  JOINT ToSpine
  {
    OFFSET -2.69724 7.43032 -0.144315
    CHANNELS 3 Zrotation Xrotation Yrotation
    JOINT Spine
    {
      OFFSET -0.0310711 10.7595 1.96963
      CHANNELS 3 Zrotation Xrotation Yrotation
      JOINT Spine1
      {
        OFFSET 13.1342 3.43533 0.764692
        CHANNELS 3 Zrotation Xrotation Yrotation
        JOINT Neck
        {
          OFFSET 29.8703 7.82586 -0.130764
          CHANNELS 3 Zrotation Xrotation Yrotation
          JOINT Head
          {
            OFFSET 9.52751 0.295786 -0.907742
            CHANNELS 3 Zrotation Xrotation Yrotation
            End Site
            {
              OFFSET 16.4037 0.713936 2.7358
            }
          }
        }
        JOINT LeftShoulder
        {
          OFFSET 27.5574 4.95586 2.47156
          CHANNELS 3 Zrotation Xrotation Yrotation
          JOINT LeftArm
          {
            OFFSET 1.20734 -0.998971 20.1238
            CHANNELS 3 Zrotation Xrotation Yrotation
            JOINT LeftForeArm
            {
              OFFSET 26.8049 -0.0536703 -0.155908
              CHANNELS 3 Zrotation Xrotation Yrotation
              JOINT LeftHand
              {
                OFFSET 26.6817 0 0.320147
                CHANNELS 3 Zrotation Xrotation Yrotation
                End Site
                {
                  OFFSET 18.6119 0 0.382219
                }
              }
            }
          }
        }
        JOINT RightShoulder
        {
          OFFSET 27.5927 4.71444 -2.65209
          CHANNELS 3 Zrotation Xrotation Yrotation
          JOINT RightArm
          {
            OFFSET 2.83739 -1.17114 -18.7564
            CHANNELS 3 Zrotation Xrotation Yrotation
            JOINT RightForeArm
            {
              OFFSET 28.839 -0.0548439 1.22491
              CHANNELS 3 Zrotation Xrotation Yrotation
              JOINT RightHand
              {
                OFFSET 26.5114 0 -0.101894
                CHANNELS 3 Zrotation Xrotation Yrotation
                End Site
                {
                  OFFSET 18.2168 0 0
                }
              }
            }
          }
        }
      }
    }
  }
  JOINT LeftUpLeg
  {
    OFFSET -4.76168 -1.9167 -10.2353
    CHANNELS 3 Zrotation Xrotation Yrotation
    JOINT LeftLeg
    {
      OFFSET 2.55951 -42.0585 -8.02213
      CHANNELS 3 Zrotation Xrotation Yrotation
      JOINT LeftFoot
      {
        OFFSET 3.16357 -42.5282 -3.95426
        CHANNELS 3 Zrotation Xrotation Yrotation
        JOINT LeftToeBase
        {
          OFFSET 0.346054 -6.02161 12.8035
          CHANNELS 3 Zrotation Xrotation Yrotation
          End Site
          {
            OFFSET 0.134235 -1.35082 5.13018
          }
        }
      }
    }
  }
  JOINT RightUpLeg
  {
    OFFSET -4.94151 -1.41743 10.6446
    CHANNELS 3 Zrotation Xrotation Yrotation
    JOINT RightLeg
    {
      OFFSET -2.56294 -42.0364 -7.94377
      CHANNELS 3 Zrotation Xrotation Yrotation
      JOINT RightFoot
      {
        OFFSET -3.0952 -42.555 -4.02241
        CHANNELS 3 Zrotation Xrotation Yrotation
        JOINT RightToeBase
        {
          OFFSET -0.0828122 -6.13587 12.8035
          CHANNELS 3 Zrotation Xrotation Yrotation
          End Site
          {
            OFFSET -0.131328 -1.35082 5.13018
          }
        }
      }
    }
  }
}
MOTION
Frames:	11
Frame Time:	0.0333333
129.29 90.2994 39.9762 -64.6396 -30.3157 -177.283 -70.1915 0 88.8779 72.124 73.206 32.8701 4.83461 26.234 -0.686767 -137.137 13.9406 -159.019 -153.294 48.3778 -169.743 1.18224 -8.55848 -17.9255 -135.788 22.6405 -68.8783 12.5151 -9.86901 -126.723 0.420957 0.000575456 0.35866 -1.52233 9.38683 30.0051 -52.2361 -27.5237 163.361 35.9619 -9.92274 76.4723 0.58676 0.000331077 0.0646653 -65.0843 -5.87897 105.545 -7.42979 63.1579 -8.15322 -19.0568 19.937 7.25893 3.86939 -5.0526 -11.2844 -31.6575 -12.2214 54.4309 2.15348 52.3555 -5.96053 -7.30418 -29.0622 1.5266 5.45637 4.07103 -30.2299 
129.185 90.101 37.7019 -65.7325 -37.398 -174.617 -70.1915 0 88.8779 76.9446 74.4465 23.8083 4.20602 26.6269 -0.476299 -138.59 14.4715 -160.303 -156.592 49.7786 -167.752 1.13643 -9.24249 -19.3542 -133.444 32.4772 -76.1157 14.9631 -11.5782 -125.996 0.420957 0.000575456 0.35866 -1.39045 9.51686 28.2919 -53.5253 -30.8831 168.228 31.1118 -8.57252 75.9654 0.58676 0.000331077 0.0646653 -66.2692 -2.02494 106.935 -5.83163 60.3304 -5.04381 -12.6769 19.8131 5.256 4.57655 -8.05093 -7.84061 -34.4572 -14.1597 49.5428 2.70145 52.879 -3.40728 -7.98578 -27.3726 1.41939 5.97719 0.261584 -36.4419 
128.905 90.5426 35.4865 -65.6767 -45.0527 -171.222 -70.1915 0 88.8779 80.8604 75.9653 17.548 3.86254 28.0674 -1.89672 -134.448 15.976 -164.293 -155.238 51.2672 -167.298 1.0247 -10.3719 -20.3393 -124.105 43.9732 -85.8667 18.3321 -12.6394 -122.575 0.420957 0.000575456 0.35866 -1.41854 10.6317 26.7517 -57.1737 -34.7572 169.134 30.7681 -8.87836 75.3089 0.58676 0.000331077 0.0646653 -65.7519 2.86243 109.653 -4.20576 56.6735 -1.39705 -12.1326 23.2215 5.70727 13.1889 -24.7836 14.9595 -36.7559 -14.1689 47.1591 2.04202 50.8998 -5.55119 -6.0694 -26.0269 1.60751 5.91107 -0.299518 -36.6965 
128.18 91.0373 33.4745 -64.0375 -55.1257 -165.473 -70.1915 0 88.8779 85.2351 76.3315 11.741 4.03885 28.8817 -4.21023 -128.392 16.5056 -170.184 -155.677 52.3922 -165.598 0.965541 -10.9487 -20.0082 -105.238 52.2726 -102.698 25.1051 -13.6832 -115.979 0.420957 0.000575456 0.35866 -1.23625 11.2114 24.1841 -61.6844 -40.9687 168.448 31.2134 -9.82514 74.1178 0.58676 0.000331077 0.0646653 -64.1992 8.36362 110.269 -2.08694 57.6079 10.2325 -2.60683 15.7366 1.81111 6.36629 -14.2243 7.02802 -38.9573 -14.3399 45.2141 1.00419 49.4906 -10.5934 -5.32956 -22.4937 1.56359 5.06657 -1.90606 -33.161 
126.94 92.8966 32.4661 -57.6119 -66.0896 -156.461 -70.1915 0 88.8779 80.3728 76.9632 13.4339 4.77648 29.4585 -4.87232 -120.625 16.6174 -176.51 -154.842 53.6583 -164.093 0.90102 -11.9722 -17.4101 -83.5097 55.3738 -121.154 33.2148 -13.6901 -109.104 0.420957 0.000575456 0.35866 -0.95469 11.4456 21.256 -66.9791 -48.6218 162.767 29.9021 -9.71381 73.4981 0.58676 0.000331077 0.0646653 -66.7296 11.788 112.451 -0.377819 49.4708 13.9968 -0.155532 11.2535 0.81485 5.29433 -11.4924 0.99653 -42.8798 -15.7551 43.3438 0.177669 46.1919 -13.499 -5.14267 -15.0627 1.31656 3.13166 -7.9444 -23.333 
125.973 94.9722 32.1123 -25.659 -75.2158 -121.688 -70.1915 0 88.8779 61.8304 74.3863 29.6227 8.12368 28.2003 -6.2989 -115.361 15.3644 178.346 -156.533 54.1659 -161.098 0.956281 -12.03 -13.7833 -66.0103 52.3728 -137.47 36.2684 -10.4617 -103.155 0.420957 0.000575456 0.35866 -0.35381 11.5927 15.4954 -73.7622 -59.8844 154.44 30.6094 -9.75416 73.8691 0.58676 0.000331077 0.0646653 -66.4226 14.2548 109.596 -0.681584 40.052 8.30158 -0.71936 10.584 0.886267 6.22 -13.4558 1.79382 -44.0601 -17.1363 43.7331 -0.493615 44.1491 -16.6269 -4.31455 -11.7734 1.18202 1.98491 -2.52872 -12.033 
125.164 96.8194 31.8475 33.5658 -72.8123 -58.83 -70.1915 0 88.8779 46.8838 70.8526 38.9734 11.1663 26.1952 -4.04221 -108.83 11.8781 168.024 -150.961 54.8554 -164.047 1.01587 -14.0602 -9.23205 -56.953 48.0179 -148.452 35.6279 -6.90743 -98.7976 0.420957 0.000575456 0.35866 -0.701087 10.4838 19.6471 -94.0281 -59.0756 132.84 29.0748 -9.03292 74.0808 0.58676 0.000331077 0.0646653 -63.781 16.5077 103.451 -1.65628 31.9689 -3.52212 -1.51272 11.9612 1.18407 7.39418 -15.9784 5.90445 -44.9639 -16.8199 49.0151 -0.518296 42.1297 -16.1105 -5.92708 -4.25578 1.02603 1.59123 -7.43673 -7.12782 
125.402 97.7638 30.8785 56.9689 -61.0784 -31.1992 -70.1915 0 88.8779 51.4374 69.1138 33.9387 12.2355 23.6925 -5.25458 -107.093 11.3151 165.245 -155.785 56.207 -157.668 1.03005 -14.6788 -8.76208 -55.8413 41.0734 -151.476 34.2854 -5.21684 -96.875 0.420957 0.000575456 0.35866 -0.838207 11.3374 20.2502 -112.569 -56.5641 113.83 23.3246 -7.46118 73.1045 0.58676 0.000331077 0.0646653 -57.2165 17.8323 96.1813 -1.63999 32.3296 -4.29512 -1.80995 10.1189 1.08299 6.36031 -14.1787 6.61337 -43.7309 -16.2161 57.7079 -0.227102 44.1964 -14.9045 -3.24268 1.38613 0.498984 1.52729 -7.95611 -6.10634 
126.17 97.5253 29.1573 63.4777 -50.8488 -20.7549 -70.1915 0 88.8779 63.6596 69.7579 25.7823 11.747 23.133 -8.78736 -107.603 12.078 162.409 -162.119 58.1774 -151.583 0.967893 -14.5588 -10.3614 -57.0135 33.6274 -153.4 28.9617 -3.56692 -95.6945 0.420957 0.000575456 0.35866 -1.15125 11.0423 23.567 -124.065 -46.9205 104.225 22.2266 -7.69766 71.7257 0.58676 0.000331077 0.0646653 -51.8711 19.7102 96.8297 -1.79149 36.6009 -1.84164 -3.8649 8.2244 1.3193 4.76442 -10.5253 1.65411 -40.3558 -14.3295 68.7155 0.8504 48.0459 -10.1527 -8.09091 4.79545 1.16076 1.48743 -8.20248 -5.48181 
126.667 96.6686 27.2548 65.232 -43.7825 -16.573 -70.1915 0 88.8779 78.0073 71.3091 13.6715 8.7274 23.3552 -8.42436 -111.965 16.289 163.688 -174.171 60.2377 -142.724 0.877237 -13.8396 -13.5261 -58.2493 29.3676 -154.065 27.8882 -2.98173 -94.8944 0.420957 0.000575456 0.35866 -0.904462 11.8381 20.4349 -133.71 -40.6833 94.7718 20.5185 -8.28313 68.8397 0.58676 0.000331077 0.0646653 -50.0314 19.8182 98.9062 -1.87441 39.5036 -0.74855 -3.66721 4.19597 0.842259 6.49027 -13.0486 -6.64779 -37.9039 -10.6209 81.2969 2.97462 46.641 4.86027 -8.05965 4.9719 1.1541 2.22297 -20.4979 -16.1586 
127.236 95.4728 25.594 65.3145 -36.7846 -14.4753 -70.1915 0 88.8779 86.554 72.2929 4.38888 4.68503 23.6147 -5.33918 -115 19.5263 161.078 177.372 62.9579 -137.989 0.738954 -14.6 -16.1294 -57.9953 27.4323 -154.95 26.68 -2.12045 -93.5006 0.420957 0.000575456 0.35866 -1.18609 11.3111 23.5879 -134.119 -27.0929 95.277 14.8324 -7.19926 64.6275 0.58676 0.000331077 0.0646653 -47.5257 19.2968 100.018 -2.36246 39.0353 -5.14462 -2.67212 -0.583556 0.195728 7.27844 -15.0008 -6.00393 -37.8264 -8.23856 92.5559 3.19485 38.6266 14.6893 0.968591 -0.521598 0.0628597 0.275497 -27.7557 -36.0674 
